PathFileType	4	(X/Y/Z)	E:\Qualisys_Data\Carbon_Farble_Plate\Data\Amateur_Runner\S1\T1\S1T1V11_c3d.trc
DataRate	CameraRate	NumFrames	NumMarkers	Units	OrigDataRate	OrigDataStartFrame	OrigNumFrames
200.000000	200.000000	4	39	mm	200.000000	40	326
Frame#	Time	LSHO			RSHO			LICST			RICST			LASIS			LHEEL			RASIS			LTROC			RTROC			SACR			LTH1			LSK4			LTH2			LTH3			RHM5			LSK2			LTH4			RTH1			LTOE			RTH2			RTH3			RTH4			LLEP			RLEP			LSK1			LSK3			RSK1			LHM5			RSK2			LFT1			RSK3			RSK4			LLME			RLME			RTOE			RHEEL			RFT1			RFT2			LFT2			
		X1	Y1	Z1	X2	Y2	Z2	X3	Y3	Z3	X4	Y4	Z4	X5	Y5	Z5	X6	Y6	Z6	X7	Y7	Z7	X8	Y8	Z8	X9	Y9	Z9	X10	Y10	Z10	X11	Y11	Z11	X12	Y12	Z12	X13	Y13	Z13	X14	Y14	Z14	X15	Y15	Z15	X16	Y16	Z16	X17	Y17	Z17	X18	Y18	Z18	X19	Y19	Z19	X20	Y20	Z20	X21	Y21	Z21	X22	Y22	Z22	X23	Y23	Z23	X24	Y24	Z24	X25	Y25	Z25	X26	Y26	Z26	X27	Y27	Z27	X28	Y28	Z28	X29	Y29	Z29	X30	Y30	Z30	X31	Y31	Z31	X32	Y32	Z32	X33	Y33	Z33	X34	Y34	Z34	X35	Y35	Z35	X36	Y36	Z36	X37	Y37	Z37	X38	Y38	Z38	X39	Y39	Z39	

41	0.2	-2015.721313476562	1471.518798828125	-543.2449340820312	-2063.385986328125	1422.576171875	-217.8560333251953	-2079.74560546875	983.3663330078124	-554.5087280273438	-2098.179443359375	1022.430847167969	-258.5640563964844	-2036.262451171875	946.5447387695312	-521.7528076171875	-2462.83154296875	430.3201599121094	-463.1440124511719	-2058.17578125	975.6981201171876	-256.0272521972656	-2138.78369140625	858.0836181640625	-569.4109497070312	-2156.868408203125	881.6678466796875	-232.2680969238281	-2206.701416015625	1016.494079589844	-409.7409973144531	-1990.443969726562	727.1898803710938	-543.97119140625	-2314.90478515625	455.4277038574219	-496.63818359375	-2069.252197265625	710.560791015625	-572.1619873046875	-1975.208984375	624.3277587890625	-538.5381469726562	-1959.703979492188	59.60674667358398	-266.4501342773438	-2221.06787109375	469.2187194824219	-539.2863159179688	-2057.179931640625	610.801025390625	-556.1769409179688	-1991.752685546875	793.24951171875	-243.6660003662109	-2418.881591796875	177.3643493652344	-458.1980285644531	-2061.518798828125	760.87744140625	-219.1470336914062	-1951.70556640625	699.8065185546875	-250.0545959472656	-2025.082153320312	669.3740234375	-235.9076080322266	-2018.023803710938	468.1608581542969	-525.9989013671875	-1939.717651367188	521.2035522460938	-280.0674438476562	-2208.492919921875	387.27734375	-524.1181640625	-2310.22705078125	378.7426147460938	-517.857177734375	-1975.64794921875	329.960693359375	-269.5181884765625	-2451.5634765625	235.468505859375	-517.8468017578125	-2055.563720703125	352.1343688964844	-269.4457397460938	-2483.627685546875	416.5079956054688	-432.7581481933594	-2002.1845703125	234.5454559326172	-286.5722351074219	-2081.021240234375	258.013671875	-297.3026428222656	-2431.3818359375	384.7476806640625	-510.1922607421875	-2073.526123046875	121.8076248168945	-288.5412292480469	-1889.882568359375	71.5706558227539	-344.982666015625	-2153.81884765625	98.35170745849608	-329.3452453613281	-2137.845458984375	67.82980346679688	-358.6713256835938	-2143.91455078125	72.35881805419922	-300.7053833007812	-2492.48974609375	418.9336853027344	-485.9686279296875
42	0.205	-2000.523193359375	1470.23828125	-543.329345703125	-2045.927001953125	1421.867553710938	-217.8408660888672	-2064.2412109375	982.4278564453124	-553.2200927734375	-2082.783447265625	1021.493408203125	-257.9283447265625	-2021.031127929688	945.8328857421876	-521.9230346679688	-2437.55859375	427.6649780273438	-463.1075744628906	-2044.567504882812	975.9085083007812	-255.3782043457031	-2123.55126953125	857.04541015625	-568.3114624023438	-2142.214111328125	881.638427734375	-231.7893676757812	-2191.7021484375	1016.50537109375	-409.3070373535156	-1971.384155273438	729.2935180664062	-543.5949096679688	-2287.882568359375	455.3772888183594	-495.9005737304688	-2050.4326171875	710.9954833984375	-571.779541015625	-1953.359741210938	627.3792114257812	-538.4218139648438	-1959.864379882812	59.267578125	-266.2767333984375	-2193.51806640625	468.9342041015625	-538.3623657226562	-2034.361572265625	611.1458740234375	-555.8380126953125	-1978.171997070312	792.1866455078125	-242.3373260498047	-2386.5361328125	176.9027252197266	-456.6723937988281	-2048.23291015625	760.6964721679688	-217.7896575927734	-1939.429565429688	697.1583251953125	-249.5156860351562	-2013.651123046875	667.8450317382812	-235.2325897216797	-1991.143798828125	469.8490905761719	-525.00244140625	-1931.851196289062	516.1860961914062	-278.1477661132812	-2180.267333984375	387.2137756347656	-522.34375	-2281.66259765625	377.9985961914062	-516.4400024414062	-1971.568359375	327.2620849609375	-268.3896484375	-2421.91552734375	232.1239776611328	-517.347900390625	-2050.861083984375	351.072021484375	-269.9059448242188	-2456.7470703125	413.5333557128906	-432.221435546875	-2000.017578125	232.7282867431641	-286.7638244628906	-2077.1259765625	257.8933715820312	-297.8347778320312	-2402.97119140625	382.3794555664062	-508.7323608398438	-2073.950439453125	121.5981826782227	-287.8890991210938	-1889.609741210938	70.98101043701172	-345.1617431640625	-2144.11328125	99.09047698974608	-326.1588745117188	-2138.0244140625	68.24646759033203	-358.7729797363281	-2143.718505859375	72.3524169921875	-300.90283203125	-2464.3515625	415.6305847167969	-485.9923095703125
43	0.21	-1985.948364257812	1469.996337890625	-543.2872314453125	-2028.067016601562	1421.28076171875	-217.6761779785156	-2049.06884765625	981.2850341796876	-554.6082763671875	-2068.40576171875	1021.120727539062	-256.6390380859375	-2003.913818359375	946.5671997070312	-518.8902587890625	-2409.790283203125	424.4024047851562	-461.8176574707031	-2024.84228515625	977.05810546875	-256.0101928710938	-2108.445556640625	856.4405517578125	-567.212890625	-2126.306884765625	881.3492431640625	-230.3537902832031	-2176.37451171875	1016.397033691406	-408.1790161132812	-1952.19287109375	732.3921508789062	-542.8496704101562	-2260.798583984375	453.9967956542969	-495.1937561035156	-2031.40625	711.7901611328125	-571.4314575195312	-1930.981567382812	630.7841186523438	-537.908447265625	-1959.886840820312	59.13985824584961	-266.4393920898438	-2166.70703125	469.0218811035156	-537.7052001953125	-2011.835693359375	612.66357421875	-555.5741577148438	-1963.977416992188	788.8460693359375	-240.9456634521484	-2357.66796875	173.8380584716797	-458.0274047851562	-2034.89111328125	759.8396606445312	-217.3692321777344	-1927.856201171875	693.8484497070312	-248.4253845214844	-2002.597290039062	665.6228637695312	-234.3981170654297	-1964.30126953125	471.7337341308594	-523.903564453125	-1923.421752929688	512.1356811523438	-276.1762084960938	-2153.1572265625	387.6138610839844	-521.9138793945312	-2254.579345703125	377.9519348144531	-514.7254638671875	-1968.628295898438	324.4650268554688	-266.6597900390625	-2390.0390625	230.5745697021484	-516.8114013671875	-2048.2041015625	352.1393432617188	-271.9973754882812	-2430.10595703125	409.6949768066406	-431.494384765625	-1998.103271484375	231.1174468994141	-284.4645690917969	-2075.2392578125	257.6751098632812	-298.9710083007812	-2375.225830078125	380.04638671875	-508.2301025390625	-2073.460205078125	121.6986923217773	-288.2238159179688	-1889.759887695312	70.23544311523438	-345.2679138183594	-2143.665283203125	99.30516815185548	-326.0238342285156	-2137.80712890625	68.56893157958984	-358.9214782714844	-2143.19384765625	72.9490737915039	-300.7914428710938	-2437.362060546875	412.2019653320312	-485.7072143554688
44	0.215	-1971.739379882812	1470.140502929688	-543.3930053710938	-2010.285400390625	1421.735473632812	-217.9078826904297	-2034.15283203125	980.7603149414062	-554.0939331054688	-2051.512939453125	1021.180358886719	-255.7842254638672	-1987.791137695312	947.1002807617188	-517.0556030273438	-2383.30224609375	420.9485473632812	-461.9424743652344	-2011.31201171875	975.0991821289062	-255.2340393066406	-2093.10888671875	856.23681640625	-566.1103515625	-2111.554931640625	881.5546264648438	-229.6807403564453	-2161.35693359375	1016.546264648438	-407.21435546875	-1933.74267578125	735.5789794921875	-542.8877563476562	-2233.878173828125	453.2433166503906	-494.6307983398438	-2010.530395507812	711.6499633789062	-570.9592895507812	-1909.0234375	634.4203491210938	-537.1637573242188	-1960.599853515625	58.20315933227539	-266.0720520019531	-2140.966552734375	470.4891357421875	-536.5645751953125	-1989.836669921875	614.115478515625	-554.7164306640625	-1949.572265625	785.3453979492188	-239.8929901123047	-2323.483154296875	171.4982147216797	-456.2358703613281	-2021.82470703125	758.033935546875	-216.7679290771484	-1915.771118164062	689.8771362304688	-247.5425262451172	-1992.408447265625	663.173828125	-233.7813110351562	-1937.940551757812	474.4385986328125	-522.3671875	-1916.904174804688	507.6396179199219	-274.9640502929688	-2126.056396484375	388.6858215332031	-521.9902954101562	-2226.346435546875	375.7673950195312	-515.6397094726562	-1965.342407226562	322.217041015625	-265.80126953125	-2358.057373046875	227.1412963867188	-515.3126220703125	-2042.45263671875	349.8418884277344	-272.5426025390625	-2402.9658203125	405.298828125	-431.2429809570312	-1996.13671875	228.5985107421875	-284.1639099121094	-2071.658203125	257.1675720214844	-299.7625732421875	-2347.76953125	377.4377746582031	-507.9142150878906	-2072.896728515625	122.1112747192383	-288.1185913085938	-1889.85888671875	69.54318237304688	-345.5526733398438	-2143.331787109375	99.51350402832033	-326.3872985839844	-2137.819091796875	69.5019760131836	-358.8581237792969	-2143.759765625	73.56076049804688	-301.3321533203125	-2410.341552734375	407.849853515625	-485.7805786132812
